<svg width="180" height="39" viewBox="0 0 180 39" fill="none" xmlns="http://www.w3.org/2000/svg">
<path d="M7.904 29.182C6.69067 29.182 5.59867 28.974 4.628 28.558C3.65733 28.1247 2.89467 27.518 2.34 26.738C1.78533 25.958 1.508 25.048 1.508 24.008H4.68C4.74933 24.788 5.05267 25.4293 5.59 25.932C6.14467 26.4347 6.916 26.686 7.904 26.686C8.92667 26.686 9.724 26.4433 10.296 25.958C10.868 25.4553 11.154 24.814 11.154 24.034C11.154 23.4273 10.972 22.9333 10.608 22.552C10.2613 22.1707 9.81933 21.876 9.282 21.668C8.762 21.46 8.034 21.2347 7.098 20.992C5.91933 20.68 4.95733 20.368 4.212 20.056C3.484 19.7267 2.86 19.224 2.34 18.548C1.82 17.872 1.56 16.9707 1.56 15.844C1.56 14.804 1.82 13.894 2.34 13.114C2.86 12.334 3.588 11.736 4.524 11.32C5.46 10.904 6.54333 10.696 7.774 10.696C9.52467 10.696 10.9547 11.138 12.064 12.022C13.1907 12.8887 13.8147 14.0847 13.936 15.61H10.66C10.608 14.9513 10.296 14.388 9.724 13.92C9.152 13.452 8.398 13.218 7.462 13.218C6.61267 13.218 5.91933 13.4347 5.382 13.868C4.84467 14.3013 4.576 14.9253 4.576 15.74C4.576 16.2947 4.74067 16.754 5.07 17.118C5.41667 17.4647 5.85 17.742 6.37 17.95C6.89 18.158 7.60067 18.3833 8.502 18.626C9.698 18.9553 10.6687 19.2847 11.414 19.614C12.1767 19.9433 12.818 20.4547 13.338 21.148C13.8753 21.824 14.144 22.734 14.144 23.878C14.144 24.7967 13.8927 25.6633 13.39 26.478C12.9047 27.2927 12.1853 27.9513 11.232 28.454C10.296 28.9393 9.18667 29.182 7.904 29.182ZM20.5794 10.93V22.448C20.5794 23.8173 20.9347 24.8487 21.6454 25.542C22.3734 26.2353 23.3787 26.582 24.6614 26.582C25.9614 26.582 26.9667 26.2353 27.6774 25.542C28.4054 24.8487 28.7694 23.8173 28.7694 22.448V10.93H31.7334V22.396C31.7334 23.8693 31.4127 25.1173 30.7714 26.14C30.1301 27.1627 29.2721 27.9253 28.1974 28.428C27.1227 28.9307 25.9354 29.182 24.6354 29.182C23.3354 29.182 22.1481 28.9307 21.0734 28.428C20.0161 27.9253 19.1754 27.1627 18.5514 26.14C17.9274 25.1173 17.6154 23.8693 17.6154 22.396V10.93H20.5794ZM50.4386 29H47.4746L38.5566 15.506V29H35.5926V10.904H38.5566L47.4746 24.372V10.904H50.4386V29ZM62.5729 29.182C60.8915 29.182 59.3402 28.792 57.9189 28.012C56.5149 27.2147 55.3969 26.114 54.5649 24.71C53.7502 23.2887 53.3429 21.694 53.3429 19.926C53.3429 18.158 53.7502 16.572 54.5649 15.168C55.3969 13.764 56.5149 12.672 57.9189 11.892C59.3402 11.0947 60.8915 10.696 62.5729 10.696C64.2715 10.696 65.8229 11.0947 67.2269 11.892C68.6482 12.672 69.7662 13.764 70.5809 15.168C71.3955 16.572 71.8029 18.158 71.8029 19.926C71.8029 21.694 71.3955 23.2887 70.5809 24.71C69.7662 26.114 68.6482 27.2147 67.2269 28.012C65.8229 28.792 64.2715 29.182 62.5729 29.182ZM62.5729 26.608C63.7689 26.608 64.8349 26.3393 65.7709 25.802C66.7069 25.2473 67.4349 24.4673 67.9549 23.462C68.4922 22.4393 68.7609 21.2607 68.7609 19.926C68.7609 18.5913 68.4922 17.4213 67.9549 16.416C67.4349 15.4107 66.7069 14.6393 65.7709 14.102C64.8349 13.5647 63.7689 13.296 62.5729 13.296C61.3769 13.296 60.3109 13.5647 59.3749 14.102C58.4389 14.6393 57.7022 15.4107 57.1649 16.416C56.6449 17.4213 56.3849 18.5913 56.3849 19.926C56.3849 21.2607 56.6449 22.4393 57.1649 23.462C57.7022 24.4673 58.4389 25.2473 59.3749 25.802C60.3109 26.3393 61.3769 26.608 62.5729 26.608Z" fill="#EAEAEA"/>
<path d="M100.282 10.748V29H95.836V18.054L91.754 29H88.166L84.058 18.028V29H79.612V10.748H84.864L89.986 23.384L95.056 10.748H100.282ZM112.111 29.182C110.395 29.182 108.818 28.7833 107.379 27.986C105.958 27.1887 104.823 26.0793 103.973 24.658C103.141 23.2193 102.725 21.6073 102.725 19.822C102.725 18.0367 103.141 16.4333 103.973 15.012C104.823 13.5907 105.958 12.4813 107.379 11.684C108.818 10.8867 110.395 10.488 112.111 10.488C113.827 10.488 115.396 10.8867 116.817 11.684C118.256 12.4813 119.383 13.5907 120.197 15.012C121.029 16.4333 121.445 18.0367 121.445 19.822C121.445 21.6073 121.029 23.2193 120.197 24.658C119.365 26.0793 118.239 27.1887 116.817 27.986C115.396 28.7833 113.827 29.182 112.111 29.182ZM112.111 25.126C113.567 25.126 114.729 24.6407 115.595 23.67C116.479 22.6993 116.921 21.4167 116.921 19.822C116.921 18.21 116.479 16.9273 115.595 15.974C114.729 15.0033 113.567 14.518 112.111 14.518C110.638 14.518 109.459 14.9947 108.575 15.948C107.709 16.9013 107.275 18.1927 107.275 19.822C107.275 21.434 107.709 22.7253 108.575 23.696C109.459 24.6493 110.638 25.126 112.111 25.126ZM141.053 10.748L134.579 29H129.015L122.541 10.748H127.273L131.797 24.528L136.347 10.748H141.053ZM147.357 10.748V29H142.911V10.748H147.357ZM155.025 14.31V18.002H160.979V21.434H155.025V25.438H161.759V29H150.579V10.748H161.759V14.31H155.025ZM171.249 29.182C169.915 29.182 168.719 28.9653 167.661 28.532C166.604 28.0987 165.755 27.4573 165.113 26.608C164.489 25.7587 164.16 24.736 164.125 23.54H168.857C168.927 24.216 169.161 24.736 169.559 25.1C169.958 25.4467 170.478 25.62 171.119 25.62C171.778 25.62 172.298 25.4727 172.679 25.178C173.061 24.866 173.251 24.4413 173.251 23.904C173.251 23.4533 173.095 23.0807 172.783 22.786C172.489 22.4913 172.116 22.2487 171.665 22.058C171.232 21.8673 170.608 21.6507 169.793 21.408C168.615 21.044 167.653 20.68 166.907 20.316C166.162 19.952 165.521 19.4147 164.983 18.704C164.446 17.9933 164.177 17.066 164.177 15.922C164.177 14.2233 164.793 12.8973 166.023 11.944C167.254 10.9733 168.857 10.488 170.833 10.488C172.844 10.488 174.465 10.9733 175.695 11.944C176.926 12.8973 177.585 14.232 177.671 15.948H172.861C172.827 15.3587 172.61 14.8993 172.211 14.57C171.813 14.2233 171.301 14.05 170.677 14.05C170.14 14.05 169.707 14.1973 169.377 14.492C169.048 14.7693 168.883 15.1767 168.883 15.714C168.883 16.3033 169.161 16.7627 169.715 17.092C170.27 17.4213 171.137 17.7767 172.315 18.158C173.494 18.5567 174.447 18.938 175.175 19.302C175.921 19.666 176.562 20.1947 177.099 20.888C177.637 21.5813 177.905 22.474 177.905 23.566C177.905 24.606 177.637 25.5507 177.099 26.4C176.579 27.2493 175.817 27.9253 174.811 28.428C173.806 28.9307 172.619 29.182 171.249 29.182Z" fill="#FF559E"/>
<path d="M100.282 10.748V29H95.836V18.054L91.754 29H88.166L84.058 18.028V29H79.612V10.748H84.864L89.986 23.384L95.056 10.748H100.282ZM112.111 29.182C110.395 29.182 108.818 28.7833 107.379 27.986C105.958 27.1887 104.823 26.0793 103.973 24.658C103.141 23.2193 102.725 21.6073 102.725 19.822C102.725 18.0367 103.141 16.4333 103.973 15.012C104.823 13.5907 105.958 12.4813 107.379 11.684C108.818 10.8867 110.395 10.488 112.111 10.488C113.827 10.488 115.396 10.8867 116.817 11.684C118.256 12.4813 119.383 13.5907 120.197 15.012C121.029 16.4333 121.445 18.0367 121.445 19.822C121.445 21.6073 121.029 23.2193 120.197 24.658C119.365 26.0793 118.239 27.1887 116.817 27.986C115.396 28.7833 113.827 29.182 112.111 29.182ZM112.111 25.126C113.567 25.126 114.729 24.6407 115.595 23.67C116.479 22.6993 116.921 21.4167 116.921 19.822C116.921 18.21 116.479 16.9273 115.595 15.974C114.729 15.0033 113.567 14.518 112.111 14.518C110.638 14.518 109.459 14.9947 108.575 15.948C107.709 16.9013 107.275 18.1927 107.275 19.822C107.275 21.434 107.709 22.7253 108.575 23.696C109.459 24.6493 110.638 25.126 112.111 25.126ZM141.053 10.748L134.579 29H129.015L122.541 10.748H127.273L131.797 24.528L136.347 10.748H141.053ZM147.357 10.748V29H142.911V10.748H147.357ZM155.025 14.31V18.002H160.979V21.434H155.025V25.438H161.759V29H150.579V10.748H161.759V14.31H155.025ZM171.249 29.182C169.915 29.182 168.719 28.9653 167.661 28.532C166.604 28.0987 165.755 27.4573 165.113 26.608C164.489 25.7587 164.16 24.736 164.125 23.54H168.857C168.927 24.216 169.161 24.736 169.559 25.1C169.958 25.4467 170.478 25.62 171.119 25.62C171.778 25.62 172.298 25.4727 172.679 25.178C173.061 24.866 173.251 24.4413 173.251 23.904C173.251 23.4533 173.095 23.0807 172.783 22.786C172.489 22.4913 172.116 22.2487 171.665 22.058C171.232 21.8673 170.608 21.6507 169.793 21.408C168.615 21.044 167.653 20.68 166.907 20.316C166.162 19.952 165.521 19.4147 164.983 18.704C164.446 17.9933 164.177 17.066 164.177 15.922C164.177 14.2233 164.793 12.8973 166.023 11.944C167.254 10.9733 168.857 10.488 170.833 10.488C172.844 10.488 174.465 10.9733 175.695 11.944C176.926 12.8973 177.585 14.232 177.671 15.948H172.861C172.827 15.3587 172.61 14.8993 172.211 14.57C171.813 14.2233 171.301 14.05 170.677 14.05C170.14 14.05 169.707 14.1973 169.377 14.492C169.048 14.7693 168.883 15.1767 168.883 15.714C168.883 16.3033 169.161 16.7627 169.715 17.092C170.27 17.4213 171.137 17.7767 172.315 18.158C173.494 18.5567 174.447 18.938 175.175 19.302C175.921 19.666 176.562 20.1947 177.099 20.888C177.637 21.5813 177.905 22.474 177.905 23.566C177.905 24.606 177.637 25.5507 177.099 26.4C176.579 27.2493 175.817 27.9253 174.811 28.428C173.806 28.9307 172.619 29.182 171.249 29.182Z" fill="url(#paint0_linear)" fill-opacity="0.5"/>
<defs>
<linearGradient id="paint0_linear" x1="134" y1="82.5" x2="84.5" y2="39" gradientUnits="userSpaceOnUse">
<stop stop-color="#FE3189"/>
<stop offset="1" stop-color="#FF006E"/>
</linearGradient>
</defs>
</svg>
